<svg xmlns="http://www.w3.org/2000/svg" viewBox="0 0 203.08 15.41" style="enable-background:new 0 0 203.08 15.41" xml:space="preserve"><style>.st365{fill:#e9252b}.st366{fill:#2176f3}</style><g id="Layer_1"><path class="st365" d="M175.38 15.06c-.03-.39-.05-.71-.08-1.08h-2.55c-.2.33-.44.7-.67 1.08h-3.62c2.06-3.12 4.07-6.17 6.09-9.21h3.83c.22 3.07.43 6.13.65 9.21h-3.65zm.15-6.21c-.03.06-.04.07-.1.17-.45.89-.9 1.77-1.39 2.72h1.31c.07-.92.12-2.02.18-2.89zM179.81 14.42c.61-.9 1.2-1.75 1.79-2.63.46.46.93.81 1.52.93.4.08.8.09 1.18-.1.22-.11.4-.26.37-.54-.03-.28-.26-.31-.47-.36-.47-.1-.96-.18-1.41-.34-1.04-.38-1.41-1.12-1.14-2.19.33-1.32 1.17-2.23 2.33-2.88.77-.44 1.61-.67 2.48-.76 1.11-.11 2.11.22 3.09.83-.55.81-1.08 1.59-1.6 2.37-.44-.2-.84-.41-1.25-.55-.24-.08-.53-.09-.79-.08-.15.01-.33.08-.45.18-.28.22-.22.53.12.64.38.12.78.2 1.17.3.49.14.94.35 1.28.75.41.49.48 1.06.33 1.66-.37 1.44-1.26 2.47-2.6 3.07-1.85.83-3.71.73-5.55-.06-.14-.05-.24-.14-.4-.24z"/><path class="st366" d="M44.47.24h5.17c.77 2.64 1.54 5.26 2.3 7.89h.15c.69-2.63 1.37-5.26 2.05-7.88h5.11l-4.26 14.68h-5.21c-.74-2.43-1.48-4.87-2.28-7.47-.76 2.59-1.48 5.01-2.2 7.47h-5.16C41.59 10 43.02 5.14 44.47.24zM117.12 15.28c-1.28.02-2.49-.21-3.65-.78-1.86-.93-2.77-2.81-2.65-4.79.19-2.97 1.61-5.32 3.87-7.17 1.77-1.45 3.84-2.2 6.09-2.49 1.27-.16 2.52.06 3.69.54 2.79 1.15 3.75 3.38 3.22 6.16-.87 4.53-4.56 7.87-9.18 8.46-.45.06-.92.05-1.39.07zm-.72-6.59c-.01 1.58 1.22 2.04 2.3 1.94 1.75-.16 2.89-1.28 3.35-2.79.61-2-.57-2.97-2.04-2.94-1.89.05-3.59 1.88-3.61 3.79zM139.52 15.07h-5.73c-.3-1.48-.61-2.98-.91-4.47-.06 0-.12-.01-.18-.01-.44 1.47-.88 2.95-1.34 4.46h-5.22c1.43-4.92 2.86-9.79 4.28-14.69.27-.01.5-.03.73-.03 1.86 0 3.72-.02 5.58.01.75.01 1.52.08 2.26.25 2.31.52 3.12 2.02 2.73 4.26-.1.59-.33 1.16-.57 1.71-.55 1.25-1.55 2.01-2.8 2.48-.22.08-.44.15-.76.26.64 1.92 1.27 3.81 1.93 5.77zm-5.01-10.69-.67 2.35c1.16.23 2.01-.11 2.33-.89.38-.91.06-1.42-.91-1.47-.24 0-.47.01-.75.01zM39.77 14.93H34.1v-1.79h-4.03c-.3.57-.61 1.17-.93 1.8h-5.7c3.18-4.97 6.3-9.85 9.41-14.73h5.93c.33 4.89.65 9.76.99 14.72zm-5.38-9.56c-.05 0-.1-.01-.15-.01-.7 1.41-1.39 2.82-2.11 4.27h2.1c.05-1.45.1-2.86.16-4.26zM100.09.34c2.48 0 4.86 0 7.24.01.31 0 .62.08.93.12 2.43.33 3.71 2.04 3.26 4.43-.46 2.43-1.72 4.32-4.07 5.3-.68.29-1.46.4-2.21.46-.99.08-1.98.02-3.02.02-.44 1.48-.86 2.92-1.3 4.39h-5.16c1.45-4.94 2.88-9.82 4.33-14.73zm3.23 6.56c.48 0 .88.05 1.25-.01.67-.1 1.22-.41 1.52-1.07.35-.77.09-1.3-.74-1.4-.41-.05-.82-.01-1.3-.01-.23.81-.47 1.62-.73 2.49zM0 14.92C1.46 9.99 2.89 5.12 4.34.2h1.08c2.2.03 4.39.05 6.59.11.51.02 1.04.15 1.53.32 1.38.47 2.22 1.64 2.23 3.09.03 3.52-2.82 6.91-6.63 6.81-.89-.02-1.77 0-2.72 0-.43 1.47-.86 2.92-1.29 4.39H0zm7.46-8.14c.79.14 1.46.03 2.1-.29.45-.23.7-.62.77-1.11.09-.62-.06-.88-.68-1.01-.45-.09-.92-.1-1.43-.15-.27.89-.51 1.7-.76 2.56zM62.75 9.46c-.15.44-.28.78-.38 1.13-.03.09-.04.19-.12.37h4.71c-.41 1.38-.8 2.66-1.18 3.97H55.72C57.15 10 58.57 5.13 59.98.24h9.96c-.39 1.35-.77 2.65-1.16 4h-4.51c-.14.46-.27.88-.43 1.4h3.97c.02.16.05.24.03.31-.33 1.15-.67 2.3-1.02 3.51h-4.07zM150.81 13.93c.96-1.41 1.87-2.74 2.8-4.11.72.72 1.45 1.26 2.38 1.45.63.12 1.26.14 1.84-.16.34-.17.62-.41.58-.85-.04-.44-.4-.48-.74-.56-.74-.16-1.5-.28-2.2-.54-1.62-.6-2.2-1.75-1.78-3.42.51-2.06 1.83-3.48 3.64-4.51 1.2-.69 2.51-1.05 3.87-1.18 1.73-.17 3.3.35 4.83 1.3-.86 1.27-1.69 2.49-2.51 3.7-.69-.31-1.31-.63-1.96-.86-.38-.13-.82-.14-1.23-.12-.24.01-.51.13-.71.28-.44.35-.35.83.18 1 .6.19 1.22.31 1.82.48.77.22 1.47.55 2 1.18.65.76.76 1.65.52 2.59-.57 2.26-1.97 3.85-4.07 4.8-2.89 1.3-5.8 1.14-8.67-.09-.18-.09-.34-.23-.59-.38zM83.33 14.01c.94-1.36 1.85-2.69 2.79-4.06.37.29.67.57 1.01.79.91.59 1.88.93 2.97.58.17-.06.38-.12.48-.24.17-.21.36-.49.34-.73-.01-.17-.32-.4-.54-.46-.47-.14-.98-.17-1.46-.3-.5-.14-1.02-.28-1.46-.53-1.22-.69-1.63-1.78-1.27-3.14.58-2.19 2.01-3.68 3.97-4.71 1.13-.59 2.35-.9 3.61-.99 1.71-.12 3.31.26 4.77 1.33-.86 1.25-1.7 2.48-2.51 3.66-.68-.32-1.28-.66-1.91-.85-.46-.14-.98-.12-1.47-.08-.25.02-.54.21-.72.41-.32.35-.23.68.22.85.34.13.71.18 1.06.28.5.14 1.02.26 1.5.46 1.87.76 2.35 2.08 1.75 4.03-.74 2.41-2.57 3.83-4.9 4.6-2.67.88-5.27.56-7.79-.61-.13-.07-.25-.16-.44-.29zM154.71.4c-.48 1.61-.93 3.14-1.4 4.72h-2.91c-1 3.33-1.99 6.63-2.99 9.94h-5.32c.96-3.3 1.91-6.55 2.88-9.89h-2.96c.47-1.64.92-3.18 1.37-4.77h11.33zM77.5 5.04c-.98 3.32-1.94 6.59-2.91 9.89h-5.35c.96-3.31 1.91-6.55 2.88-9.88h-2.95c.48-1.66.94-3.22 1.4-4.79h11.31c-.5 1.63-.97 3.19-1.46 4.78H77.5zM17.52.25h5.39c-.98 3.34-1.94 6.61-2.93 9.96h4.49c-.47 1.6-.91 3.13-1.36 4.69h-9.84c1.42-4.89 2.84-9.76 4.25-14.65z"/><path class="st365" d="M199.44 15.08c-.03-.39-.05-.71-.08-1.08h-2.55c-.2.33-.44.7-.67 1.08h-3.62c2.06-3.12 4.07-6.17 6.09-9.21h3.83c.22 3.07.43 6.13.65 9.21h-3.65zm.15-6.21c-.03.06-.04.07-.1.17-.45.89-.9 1.77-1.39 2.72h1.31c.07-.92.12-2.02.18-2.89zM191.68 15.1h-3.05c-.1 0-.2-.03-.36-.06.93-3.08 1.84-6.12 2.76-9.17h3.43c-.93 3.08-1.85 6.12-2.78 9.23zM166.37 11.79c.51.02.99.19 1.25.72.23.46.07 1.06-.38 1.49-.58.56-1.3.74-2.09.66-.47-.05-.88-.23-1.03-.72-.15-.48-.01-.95.33-1.31.51-.51 1.14-.81 1.92-.84z"/></g></svg>